PathFileType	4	(X/Y/Z)	Kaydara																																																																																																																									
DataRate	CameraRate	NumFrames	NumMarkers	Units	OrigDataRate	OrigDataStartFrame	OrigNumFrames																																																																																																																					
30	30	6	41	mm	30	71	111																																																																																																																					
Frame#	Time	PAIB_LFHD			PAIB_RFHD			PAIB_LBHD			PAIB_RBHD			PAIB_LFTShould			PAIB_RFTShould			PAIB_LRRShould			PAIB_RRRShould			PAIB_T10			PAIB_STRN			PAIB_TRUN			PAIB_LSHO			PAIB_LUPA			PAIB_LELB			PAIB_LFRM			PAIB_LWRA			PAIB_LWRB			PAIB_LFIN			PAIB_RSHO			PAIB_RUPA			PAIB_RELB			PAIB_RFRM			PAIB_RWRA			PAIB_RWRB			PAIB_RFIN			PAIB_LFWT			PAIB_RFWT			PAIB_LBWT			PAIB_RBWT			PAIB_LTHI			PAIB_LKNE			PAIB_LSHN			PAIB_LANK			PAIB_LHEE			PAIB_LTOE			PAIB_RTHI			PAIB_RKNE			PAIB_RSHN			PAIB_RANK			PAIB_RHEE			PAIB_RTOE		
		X1	Y1	Z1	X2	Y2	Z2	X3	Y3	Z3	X4	Y4	Z4	X5	Y5	Z5	X6	Y6	Z6	X7	Y7	Z7	X8	Y8	Z8	X9	Y9	Z9	X10	Y10	Z10	X11	Y11	Z11	X12	Y12	Z12	X13	Y13	Z13	X14	Y14	Z14	X15	Y15	Z15	X16	Y16	Z16	X17	Y17	Z17	X18	Y18	Z18	X19	Y19	Z19	X20	Y20	Z20	X21	Y21	Z21	X22	Y22	Z22	X23	Y23	Z23	X24	Y24	Z24	X25	Y25	Z25	X26	Y26	Z26	X27	Y27	Z27	X28	Y28	Z28	X29	Y29	Z29	X30	Y30	Z30	X31	Y31	Z31	X32	Y32	Z32	X33	Y33	Z33	X34	Y34	Z34	X35	Y35	Z35	X36	Y36	Z36	X37	Y37	Z37	X38	Y38	Z38	X39	Y39	Z39	X40	Y40	Z40	X41	Y41	Z41
																																																																																																																												
56	2.333	169.16401	1586.85623	-914.16847	-14.72652	1577.79343	-930.23041	188.69104	1581.77536	-1042.02446	-14.67103	1580.84991	-1046.05614	162.21577	1334.26773	-1004.4648	43.174	1323.0864	-1031.22772	181.17973	1454.02817	-1106.66847	33.67003	1438.99918	-1128.13972	138.43807	1340.9256	-1258.54813	114.71647	1254.84001	-1008.67928	124.08654	1153.19855	-1029.72603	295.07317	1391.20087	-1050.59586	426.2315	1244.72855	-1163.34251	472.57511	1213.01537	-1233.6525	514.87209	1091.52359	-1228.08815	469.16889	946.32965	-1207.24899	533.23879	962.29729	-1253.35464	529.70181	917.11014	-1191.93039	-68.64339	1348.69003	-1101.15585	-165.35645	1229.04518	-1194.87984	-218.97337	1131.63841	-1231.87759	-224.56408	993.62061	-1187.49649	-139.34536	910.37865	-1092.48909	-213.39077	881.8129	-1126.00288	-195.40609	867.39746	-1053.25073	247.18328	920.61325	-1155.48264	12.96537	942.6683	-1179.79073	216.81698	995.2607	-1373.22632	74.89231	1023.83049	-1377.99271	257.01647	696.39748	-1330.59265	287.24447	469.63192	-1153.32481	249.76843	322.38651	-1268.68431	248.40736	257.08599	-1465.85052	190.86367	284.52232	-1505.06516	232.16263	111.3717	-1377.31125	9.7033	711.31378	-1386.26572	-4.02579	463.77716	-1296.15891	68.16347	280.84459	-1313.91357	67.60778	111.58207	-1455.21866	133.50476	122.30159	-1485.56702	61.76538	78.30747	-1270.58876
57	2.367	170.99834	1586.30722	-866.43547	-12.87707	1578.16376	-880.98831	189.56577	1583.19229	-994.57108	-13.86698	1582.99423	-996.71501	164.44775	1337.37518	-960.58952	44.73598	1325.85236	-982.17949	178.7534	1455.98328	-1065.04921	30.84196	1440.07523	-1081.17065	130.76365	1339.86542	-1213.57658	117.16427	1258.03574	-961.49597	125.97315	1156.12076	-980.43503	295.06914	1394.40948	-1012.67281	425.49953	1252.15378	-1131.80374	466.47655	1222.15828	-1204.44305	519.70875	1106.67664	-1210.43152	490.08652	956.1779	-1196.42365	547.54322	980.98099	-1247.00096	554.04785	932.05643	-1188.68546	-69.75686	1350.68558	-1047.15408	-169.55339	1226.35567	-1128.36571	-225.00792	1126.2915	-1154.70078	-225.69201	992.70271	-1097.53708	-133.79177	919.95178	-1000.21942	-209.09166	887.33124	-1027.01729	-187.01641	879.56276	-954.41521	241.63658	922.66182	-1103.86559	6.78998	939.60777	-1128.59016	212.53433	991.02081	-1322.77222	71.00593	1020.71465	-1328.1073	257.2506	693.97697	-1255.11627	283.39451	488.00304	-1048.3976	243.93055	319.18045	-1135.75706	239.50176	217.29012	-1317.1524	181.24985	236.2727	-1360.65735	224.4912	95.56282	-1200.81154	8.33144	713.99384	-1349.43237	-3.07302	462.36694	-1277.48817	69.66514	279.91575	-1302.74475	70.60664	117.07248	-1450.68726	136.77579	129.07061	-1479.99893	60.19126	76.86799	-1268.72765
58	2.4	174.99439	1579.7905	-818.35907	-9.37984	1573.37387	-830.68413	191.52317	1578.32001	-946.62666	-12.02258	1580.0795	-946.12198	167.67345	1335.80246	-915.97435	46.95856	1323.83377	-931.94016	176.17405	1452.4321	-1022.60719	28.75739	1435.83344	-1032.05032	122.72079	1333.8504	-1167.40952	120.40967	1256.51894	-913.07579	128.31917	1153.97598	-931.14555	295.48553	1393.5144	-975.56595	425.07751	1255.2877	-1096.22169	462.49779	1225.87257	-1170.64415	527.04681	1119.59045	-1188.36197	515.13409	965.45425	-1185.765	566.02764	1000.886	-1236.76186	581.48975	947.80563	-1184.01772	-69.92302	1349.5903	-992.24899	-172.68654	1221.26015	-1062.09335	-230.13226	1119.60953	-1078.09998	-225.20466	991.48636	-1008.41606	-126.7853	930.66818	-908.86917	-202.56802	894.08005	-928.42934	-176.76373	893.91487	-856.95251	235.70019	920.22079	-1049.81873	0.73986	931.85165	-1076.39145	209.26884	982.07764	-1269.7245	67.77967	1011.69708	-1276.68701	255.48843	690.40695	-1182.19406	278.49018	503.95596	-952.64786	237.44778	316.26871	-1002.87392	232.24791	175.5225	-1156.86783	174.15638	184.81098	-1204.08035	217.19593	83.33005	-1016.40839	9.06157	711.72356	-1309.7403	-0.5752	456.83826	-1252.26196	73.37848	276.74133	-1288.28888	74.22236	122.43441	-1445.01328	140.89907	135.71523	-1473.19183	62.06707	73.93548	-1266.21323
59	2.433	181.1735	1568.20175	-771.32195	-3.52776	1565.20157	-778.67416	194.23586	1566.97937	-900.07751	-9.16588	1572.32162	-893.98582	169.75536	1327.63016	-868.35487	48.74613	1315.64713	-880.00961	173.93291	1441.82541	-975.32829	26.67554	1426.06033	-980.68527	116	1323.2988	-1118.47084	122.57668	1248.76549	-862.9808	129.57293	1146.07735	-880.46776	295.11166	1385.0383	-933.04222	425.98877	1252.60384	-1056.72234	462.55363	1228.95943	-1133.10692	537.18117	1132.46025	-1160.99915	541.59348	978.75397	-1171.50963	585.33401	1024.15138	-1221.51962	609.43874	968.88702	-1174.85611	-69.78374	1342.05093	-936.51573	-177.12322	1214.06815	-993.76312	-236.23531	1112.64351	-997.84302	-224.62879	991.15166	-917.38365	-117.61209	941.76292	-819.80301	-194.06281	902.61765	-830.54855	-163.21037	909.3071	-761.06758	230.44096	912.07703	-993.78784	-4.34277	917.93678	-1021.20811	206.26318	968.94836	-1213.80928	64.84454	998.01041	-1221.7823	251.924	682.93526	-1113.41766	272.21113	511.3271	-869.69849	231.74654	315.48969	-875.66658	225.97057	140.00642	-987.51213	167.79942	138.13068	-1035.12192	211.14447	80.61069	-829.13193	11.035	707.14447	-1266.38947	2.42874	449.2305	-1224.09508	77.03677	272.42338	-1273.02971	77.61573	127.81943	-1438.76389	144.0648	142.53481	-1465.98419	66.41425	71.04411	-1263.2148
60	2.467	188.21732	1554.30557	-721.7823	3.441	1554.5784	-725.9063	199.03469	1552.10083	-850.72166	-4.07202	1561.12671	-841.08299	172.3311	1313.22128	-817.11433	49.93598	1303.7117	-825.48248	173.96921	1426.98471	-924.1819	26.96909	1413.77197	-927.314	111.94664	1308.10165	-1065.60257	124.04412	1235.31296	-809.77516	129.1434	1132.30827	-826.43196	295.22545	1371.32782	-884.1169	429.31458	1255.99686	-1014.83437	465.01621	1237.01248	-1093.54637	545.86269	1149.78012	-1129.09996	563.1604	997.17522	-1146.07597	600.75386	1047.76421	-1196.03722	631.77818	992.03842	-1154.53506	-68.28924	1332.26273	-877.20985	-180.37189	1207.8994	-921.25153	-242.35893	1108.73016	-914.55956	-222.45497	994.04503	-826.19522	-106.91704	953.42773	-735.14763	-183.92456	913.78677	-735.4435	-146.64001	925.26787	-670.1252	226.10085	898.64456	-935.2198	-7.96745	899.32602	-962.5132	204.16063	952.85698	-1154.58351	62.6459	981.57463	-1162.50694	246.4843	670.1989	-1047.57233	264.81865	508.68969	-794.78882	227.82068	317.43864	-757.11838	219.23216	120.00036	-819.99382	158.7985	107.35902	-863.06213	210.8766	95.77502	-649.33571	11.12962	703.54202	-1221.56937	3.82252	444.55269	-1200.56038	78.53781	270.06077	-1260.69977	77.99056	134.23087	-1434.03809	143.97161	150.63606	-1460.76996	69.32209	70.44123	-1263.20061
61	2.5	196.45386	1540.45288	-667.5779	11.86199	1544.47083	-670.16312	206.07136	1536.83884	-796.64551	3.29162	1550.24139	-785.27122	176.97649	1298.68988	-760.47104	53.53236	1291.33484	-764.87747	175.51319	1411.85913	-868.09586	29.39282	1402.20535	-867.15103	108.14455	1291.2471	-1005.8419	127.75705	1221.05057	-751.09543	130.9469	1117.91275	-767.00493	295.7056	1361.03348	-832.40807	434.02519	1262.16812	-970.78148	468.34141	1248.27248	-1050.00061	552.61162	1163.1765	-1086.72379	573.63892	1011.01822	-1106.22238	610.25139	1064.2421	-1154.71008	642.45705	1007.00127	-1116.11801	-63.68785	1323.67584	-810.7872	-181.94567	1204.69406	-846.14914	-246.9891	1108.55362	-833.45421	-219.30067	999.459	-739.94911	-95.78711	965.44792	-656.20255	-172.33295	924.60587	-648.50792	-130.00839	939.78775	-586.60866	223.67268	884.24309	-871.75339	-10.1272	878.0027	-901.69144	203.30715	935.21072	-1091.4756	61.20285	962.80212	-1099.61449	240.94809	654.07364	-980.72517	258.17902	496.83174	-723.71277	223.33912	319.43237	-653.81569	209.40907	114.70534	-676.69205	145.57001	96.25314	-712.90207	210.54676	119.89081	-501.69056	11.67635	702.85324	-1175.18173	2.85456	443.50559	-1184.41452	75.23483	271.17609	-1249.70238	73.63398	144.57248	-1430.27252	139.05935	163.02795	-1456.02753	70.00408	70.23332	-1264.51859
